<?xml version="1.0" encoding="utf-8"?>
<svg viewBox="0 0 500 300" xmlns="http://www.w3.org/2000/svg">
  <defs>
    <linearGradient gradientUnits="userSpaceOnUse" x1="250" y1="0" x2="250" y2="300" id="gradient-3">
      <stop offset="0" style="stop-color: rgba(34, 34, 34, 1)"/>
      <stop offset="1" style="stop-color: rgba(0, 0, 0, 1)"/>
    </linearGradient>
    <linearGradient gradientUnits="userSpaceOnUse" x1="570.563" y1="120.069" x2="570.563" y2="244.246" id="gradient-0">
      <stop offset="0" style="stop-color: rgba(72, 72, 72, 1)"/>
      <stop offset="1" style="stop-color: rgba(21, 21, 21, 1)"/>
    </linearGradient>
  </defs>
  <rect y="0" width="500" height="300" style="fill: url(#gradient-3);" rx="23.342" ry="23.342" x="0"/>
  <path style="fill: url(#gradient-0);" transform="matrix(1.787665, 0, 0, 1.757933, -834.040846, -127.199534)" d="M 466.779 118.671 A 125.667 125.667 0 0 1 591.323 242.655 L 569.305 242.949 A 103.648 103.648 0 0 0 466.584 140.689 Z"/>
  <path d="M 382.464 155.827 L 441.247 155.827 C 450.449 155.849 458.877 159.599 464.903 165.626 C 470.93 171.652 474.68 180.08 474.702 189.282 L 474.702 220.424 C 474.68 229.626 470.93 238.054 464.903 244.08 C 458.877 250.107 450.449 253.857 441.247 253.879 L 382.464 253.879 C 373.262 253.857 364.834 250.107 358.808 244.08 C 352.781 238.054 349.031 229.626 349.009 220.424 L 349.009 189.282 C 349.031 180.08 352.781 171.652 358.808 165.626 C 364.834 159.599 373.262 155.849 382.464 155.827 Z M 359.515 166.333 C 353.614 172.234 349.987 180.284 350.009 189.282 L 350.009 220.424 C 349.987 229.422 353.614 237.472 359.515 243.373 C 365.416 249.274 373.466 252.901 382.464 252.879 L 441.247 252.879 C 450.245 252.901 458.295 249.274 464.196 243.373 C 470.097 237.472 473.724 229.422 473.702 220.424 L 473.702 189.282 C 473.724 180.284 470.097 172.234 464.196 166.333 C 458.295 160.432 450.245 156.805 441.247 156.827 L 382.464 156.827 C 373.466 156.805 365.416 160.432 359.515 166.333 Z" style="fill: none;"/>
  <path d="M 483.915 195.753 L 483.915 285.819 L 393.849 285.819 L 393.849 195.753 Z M 394.849 284.819 L 482.915 284.819 L 482.915 196.753 L 394.849 196.753 Z" style="fill: none;"/>
  <path d="M 483.915 195.753 L 483.915 285.819 L 393.849 285.819 L 393.849 195.753 Z M 394.849 284.819 L 482.915 284.819 L 482.915 196.753 L 394.849 196.753 Z" style="fill: none;"/>
</svg>